<?xml version="1.0" standalone="no"?>
<!DOCTYPE svg PUBLIC "-//W3C//DTD SVG 20010904//EN"
 "http://www.w3.org/TR/2001/REC-SVG-20010904/DTD/svg10.dtd">
<svg version="1.0" xmlns="http://www.w3.org/2000/svg"
 width="2928.000000pt" height="1063.000000pt" viewBox="0 0 2928.000000 1063.000000"
 preserveAspectRatio="xMidYMid meet">

<g transform="translate(0.000000,1063.000000) scale(0.100000,-0.100000)"
fill="#000000" stroke="none">
<path d="M20281 9450 c-23 -17 -57 -54 -75 -83 -18 -29 -394 -753 -836 -1610
-441 -857 -806 -1555 -810 -1550 -10 12 -1391 3150 -1408 3200 -8 23 -19 43
-25 46 -20 7 -1881 -112 -1897 -121 -21 -12 -38 -69 -56 -181 -13 -84 -14
-491 -12 -3213 2 -2541 5 -3119 16 -3130 10 -10 196 -13 945 -15 512 -2 935 1
939 5 8 8 16 794 17 1755 1 361 4 657 9 657 8 0 301 -607 358 -740 19 -47 41
-92 48 -100 7 -8 181 -364 385 -790 205 -426 379 -782 387 -791 24 -26 54 -28
288 -13 252 15 316 22 334 33 7 4 269 639 582 1411 314 772 572 1405 575 1408
3 3 5 -9 5 -27 0 -49 -98 -2509 -105 -2643 -7 -116 -6 -117 19 -143 l25 -25
935 0 c917 0 936 0 968 -20 40 -24 126 -27 169 -5 92 48 92 206 0 246 -25 11
-31 21 -35 54 -3 22 -16 530 -31 1130 -25 1073 -25 1101 -11 1795 9 388 16
797 17 910 0 113 28 679 60 1258 32 579 59 1081 59 1116 0 55 -3 65 -27 88
-16 15 -39 29 -53 32 -19 5 -1633 86 -1702 86 -8 0 -34 -14 -57 -30z m914 -90
c369 -17 692 -34 720 -38 l49 -7 -499 -379 c-275 -208 -506 -379 -513 -380
-11 -1 -532 751 -574 828 -10 18 -7 18 68 13 44 -4 381 -20 749 -37z m-4112
-2 c3 -7 143 -325 311 -707 168 -382 304 -696 302 -698 -4 -4 -1358 -61 -1364
-58 -1 1 25 60 59 131 34 71 135 293 226 494 91 201 218 474 283 608 115 235
120 242 148 242 17 0 32 -6 35 -12z m-165 -5 c-2 -5 -24 -48 -49 -98 -61 -119
-175 -361 -316 -675 -174 -387 -285 -621 -294 -618 -8 3 -981 1297 -977 1299
11 3 1510 97 1566 98 41 0 72 -2 70 -6z m3654 -407 c183 -270 255 -384 265
-420 7 -27 10 -52 8 -56 -3 -4 -113 -90 -245 -190 -132 -100 -242 -186 -245
-190 -3 -6 12 -63 22 -79 2 -3 168 121 406 303 42 32 79 57 82 54 7 -6 154
-762 150 -766 -1 -2 -145 83 -319 189 -175 105 -318 190 -319 188 -2 -2 -10
-20 -18 -39 l-16 -34 345 -208 c190 -114 347 -210 350 -213 6 -5 172 -852 172
-875 0 -9 -116 -83 -292 -187 -160 -95 -292 -172 -294 -170 -1 1 -97 232 -214
512 l-212 510 6 165 c3 91 9 222 12 291 l7 126 -30 6 c-41 8 -91 60 -99 102
-15 80 31 157 101 171 l33 6 6 71 c4 55 45 1057 46 1137 1 24 23 -7 292 -404z
m1468 282 c0 -58 -119 -2110 -122 -2113 -6 -5 -911 1337 -912 1352 -1 13 1006
790 1027 792 4 1 7 -14 7 -31z m-1870 -559 c-11 -266 -20 -496 -20 -511 0 -16
-4 -28 -10 -28 -11 0 -337 196 -358 215 -10 9 29 92 195 413 114 221 208 400
210 398 2 -1 -6 -221 -17 -487z m-4544 -416 l333 -692 -22 -43 c-12 -24 -22
-44 -23 -45 -1 -4 -652 -203 -663 -203 -8 0 -11 271 -11 888 l1 887 26 -50
c14 -27 176 -361 359 -742z m164 188 l429 -573 -38 -77 c-22 -42 -54 -103 -73
-137 l-35 -60 43 -10 43 -10 59 109 59 108 62 -82 c33 -46 58 -86 54 -90 -5
-4 -51 -19 -103 -34 -52 -15 -96 -29 -98 -30 -3 -3 25 -64 33 -73 2 -2 51 11
109 29 58 18 108 30 110 28 7 -7 84 -279 79 -279 -2 0 -70 36 -150 80 -80 44
-147 79 -148 78 -1 -2 -10 -18 -19 -36 -49 -97 -204 -95 -250 2 -32 68 -10
151 49 184 17 9 31 17 32 18 2 0 -133 281 -298 625 -322 666 -393 816 -384
808 3 -3 198 -263 435 -578z m5590 -687 c230 -340 418 -620 416 -622 -2 -1
-156 89 -342 202 l-338 204 -78 398 c-42 220 -80 410 -84 424 -3 14 -3 22 0
19 3 -3 195 -284 426 -625z m-1404 373 l101 -60 -5 -43 c-6 -57 3 -87 38 -127
l29 -33 -9 -195 c-5 -107 -10 -196 -10 -199 0 -4 -279 657 -311 739 l-9 23 37
-22 c21 -12 83 -49 139 -83z m-675 -991 c-208 -565 -381 -1029 -384 -1032 -9
-9 -282 31 -282 42 0 12 1037 2025 1041 2021 2 -2 -167 -466 -375 -1031z m634
554 l178 -425 -22 -585 c-12 -322 -24 -591 -26 -597 -3 -7 -12 -13 -22 -13
-31 0 -83 -39 -100 -75 -13 -28 -22 -35 -38 -31 -11 2 -217 31 -458 63 -418
55 -438 59 -434 78 2 11 167 463 367 1005 421 1143 372 1012 375 1008 2 -2 83
-194 180 -428z m-2186 153 c58 -124 721 -1636 719 -1638 -2 -1 -340 181 -753
405 l-750 407 -297 394 c-163 216 -295 395 -293 398 3 2 298 16 657 31 359 15
665 28 679 29 19 1 29 -6 38 -26z m3765 -642 c196 -118 355 -215 353 -216 -31
-24 -570 -336 -574 -332 -4 4 -153 747 -153 765 0 7 27 -8 374 -217z m-5722
-157 c-86 -173 -159 -314 -162 -314 -14 1 -358 456 -347 459 6 3 154 48 327
102 273 84 317 95 327 82 10 -12 -17 -74 -145 -329z m887 210 c49 -65 88 -120
86 -122 -2 -2 -33 13 -69 33 l-66 36 -20 72 c-32 110 -33 112 -26 106 3 -3 46
-59 95 -125z m-232 -208 c100 -92 185 -171 187 -175 7 -11 356 -1244 353
-1247 -2 -2 -788 1626 -796 1650 -2 6 14 -5 35 -25 22 -19 121 -111 221 -203z
m152 -814 l401 -834 0 -167 c0 -271 37 -297 -436 305 -220 280 -404 515 -411
524 -8 11 -18 200 -32 590 -12 316 -21 584 -20 595 0 11 22 -25 48 -80 27 -55
229 -475 450 -933z m-142 968 l101 -55 16 -54 c9 -30 15 -56 13 -57 -1 -1 -58
50 -125 113 -68 63 -120 114 -115 112 4 -2 54 -29 110 -59z m-568 -360 c-33
-173 -63 -323 -67 -333 -6 -14 -19 -2 -69 63 l-63 80 127 254 c70 140 128 254
129 253 2 -1 -24 -144 -57 -317z m-460 8 l162 -207 -175 -348 -175 -348 0 570
c-1 484 1 567 13 555 7 -8 86 -108 175 -222z m1361 171 l111 -61 241 -322
c133 -176 246 -328 251 -336 6 -8 -9 3 -34 26 -24 22 -180 165 -346 317 l-302
277 -21 69 c-20 69 -24 91 -15 91 2 0 54 -28 115 -61z m3754 -797 c5 -14 -24
-36 -159 -115 -90 -53 -168 -97 -172 -97 -4 0 -21 12 -36 26 l-29 24 16 398
c9 218 19 446 22 506 l6 109 173 -416 c96 -229 176 -425 179 -435z m-4508 486
c7 -189 13 -381 13 -428 l0 -85 -25 30 c-13 17 -49 62 -79 101 l-56 72 63 331
c34 181 64 328 67 326 2 -3 10 -159 17 -347z m5874 -463 c-6 -330 -13 -602
-15 -603 -4 -4 -427 177 -438 188 -9 8 -149 709 -144 723 1 4 135 86 297 182
l295 175 9 -33 c5 -18 3 -288 -4 -632z m-4092 216 c348 -189 629 -347 625
-351 -9 -8 -593 -210 -606 -210 -37 0 -137 126 -611 764 l-147 198 53 -29 c29
-16 338 -183 686 -372z m-475 -235 c315 -289 388 -361 375 -370 -8 -6 -624
-216 -634 -216 -9 0 -303 1003 -322 1100 -4 20 19 3 109 -81 63 -58 275 -253
472 -433z m-1613 239 c47 -61 69 -96 66 -110 -2 -11 -50 -265 -107 -565 -56
-300 -105 -548 -108 -552 -3 -4 -80 113 -170 260 l-164 266 199 398 c109 219
202 397 206 396 4 -2 39 -43 78 -93z m5566 -278 c33 -172 60 -313 60 -314 -2
-3 -656 280 -678 293 -12 7 54 51 266 175 154 92 283 165 286 162 2 -2 32
-144 66 -316z m-5327 -27 c68 -86 91 -123 91 -145 0 -16 14 -397 30 -845 16
-448 28 -815 27 -816 -4 -4 -462 747 -465 762 -3 12 202 1119 214 1153 2 8 6
12 8 10 3 -2 45 -56 95 -119z m4520 -349 c-46 -165 -86 -298 -90 -295 -4 2
-50 74 -104 159 l-97 156 20 46 c19 44 29 52 183 143 90 54 166 96 168 94 2
-2 -34 -138 -80 -303z m-1607 206 c3 -1 -73 -217 -169 -480 -164 -445 -178
-477 -197 -471 -12 4 -22 7 -22 8 -2 1 104 980 105 982 1 1 276 -36 283 -39z
m2193 -116 l300 -130 47 -233 c26 -128 47 -242 47 -253 1 -24 -315 -283 -328
-269 -8 10 -431 1026 -431 1036 0 4 15 1 33 -7 17 -8 167 -72 332 -144z
m-2565 127 c0 -28 -99 -930 -102 -934 -3 -2 -331 430 -520 686 l-28 37 318
111 c174 61 320 111 325 111 4 1 7 -5 7 -11z m2356 -573 c112 -270 204 -496
204 -502 0 -11 -194 -173 -207 -173 -13 1 -397 622 -396 639 2 13 133 486 160
575 4 16 8 14 20 -15 8 -19 106 -255 219 -524z m-1392 484 c248 -33 457 -66
464 -72 7 -5 9 -14 5 -18 -11 -11 -1307 -778 -1310 -775 -2 2 298 824 328 899
8 19 18 27 37 27 14 0 229 -27 476 -61z m-2930 -512 l367 -467 -307 -371
c-231 -278 -312 -368 -323 -363 -9 4 -28 9 -43 12 -22 3 -28 11 -32 36 -4 29
-57 1541 -56 1616 0 29 2 32 14 20 7 -8 178 -225 380 -483z m3473 351 c-3 -7
-93 -229 -200 -493 -151 -371 -199 -481 -214 -483 -10 -1 -232 24 -493 58
-261 33 -478 60 -482 60 -5 0 -8 10 -8 23 0 19 98 81 693 434 380 226 696 411
701 412 4 1 6 -5 3 -11z m-2280 -20 c-2 -7 -64 -259 -138 -560 -74 -302 -136
-548 -140 -548 -3 0 -88 169 -187 376 l-182 377 0 73 0 72 43 16 c122 46 584
205 596 205 7 1 11 -5 8 -11z m2533 -197 l102 -165 -137 -490 c-76 -270 -142
-500 -146 -511 -6 -12 -7 13 -4 65 3 47 14 335 25 640 12 305 23 579 26 609 7
63 -8 79 134 -148z m-2183 -184 c257 -347 261 -352 247 -379 -8 -15 -14 -46
-14 -70 l0 -43 -372 -220 c-204 -121 -376 -221 -383 -223 -6 -2 -20 15 -29 36
l-18 40 148 606 c82 333 151 606 154 606 3 0 123 -159 267 -353z m3633 244
c63 -27 113 -54 111 -58 -2 -4 -66 -59 -142 -121 -86 -69 -141 -108 -144 -100
-2 7 -18 87 -35 178 -17 91 -34 175 -37 188 -6 25 -17 29 247 -87z m-6316
-271 c86 -140 154 -261 152 -270 -3 -8 -73 -375 -156 -815 -83 -440 -153 -804
-155 -810 -2 -5 -4 478 -4 1074 -1 596 1 1082 3 1080 2 -2 74 -119 160 -259z
m6507 -933 c15 -584 26 -1063 25 -1064 -1 -1 -85 421 -186 938 -157 807 -181
942 -169 954 35 36 295 242 299 238 2 -2 17 -482 31 -1066z m-1123 303 c-4
-12 -660 -541 -665 -537 -2 3 61 236 141 518 79 283 149 534 156 557 l11 44
180 -287 c99 -157 179 -290 177 -295z m890 -490 c99 -509 179 -926 178 -928
-2 -1 -155 363 -340 809 -186 445 -337 812 -335 814 52 48 305 243 310 237 4
-4 88 -423 187 -932z m-5804 356 l228 -370 -21 -37 c-27 -48 -27 -114 0 -158
l20 -34 -33 -41 c-183 -229 -828 -995 -828 -983 0 8 86 464 190 1015 105 550
190 1004 190 1008 0 13 11 -4 254 -400z m1118 -1229 l-7 -418 -324 528 c-178
290 -326 531 -327 534 -2 4 3 21 12 38 9 19 14 49 12 76 l-3 44 320 386 320
386 2 -578 c2 -318 -1 -766 -5 -996z m2128 1417 c250 -31 457 -58 459 -60 3
-3 -216 -553 -294 -737 l-16 -39 -335 446 c-183 245 -334 449 -334 452 0 3 15
4 33 1 17 -3 237 -31 487 -63z m2285 -614 c152 -366 284 -681 292 -700 8 -19
10 -30 5 -25 -13 14 -732 1163 -738 1180 -7 17 146 229 156 218 5 -4 133 -307
285 -673z m-3025 618 c1 -51 -71 -1191 -76 -1206 -2 -8 -159 167 -349 389
-190 221 -343 405 -340 408 15 15 742 441 753 441 7 0 12 -13 12 -32z m500
-461 c244 -325 350 -474 345 -485 -44 -123 -370 -912 -375 -910 -4 2 -112 125
-239 273 l-232 270 5 50 c3 28 21 311 41 630 20 319 38 595 41 613 5 30 8 33
34 30 25 -3 72 -60 380 -471z m1970 313 c0 -8 -436 -617 -461 -644 -5 -6 -50
19 -109 59 -55 38 -97 71 -95 74 34 34 643 520 653 520 6 1 12 -3 12 -9z m545
-865 c252 -401 463 -738 469 -747 7 -13 7 -21 -1 -29 -8 -8 -196 115 -707 462
-383 260 -696 476 -696 481 0 4 100 145 221 313 l222 306 17 -28 c9 -15 223
-356 475 -758z m-3366 -18 c216 -253 270 -322 267 -340 -3 -12 -10 -114 -17
-227 -6 -113 -13 -207 -15 -209 -2 -2 -17 25 -33 60 -16 35 -137 289 -270 563
-133 275 -241 502 -241 505 0 9 25 -20 309 -352z m2209 226 l93 -65 -18 -27
c-10 -16 -72 -103 -138 -194 -114 -157 -120 -163 -123 -132 -6 63 16 460 27
489 13 33 1 38 159 -71z m-3647 -552 c181 -294 329 -538 329 -543 0 -4 -367
-8 -816 -8 -641 0 -814 3 -808 12 5 7 208 253 451 546 l444 533 36 -3 35 -3
329 -534z m4474 -9 c550 -373 700 -476 650 -450 -5 3 -361 117 -790 253 -429
136 -785 250 -791 254 -6 3 45 83 129 198 87 120 143 190 151 186 6 -4 299
-202 651 -441z m-145 -282 c421 -133 772 -246 780 -251 8 -5 -208 -9 -482 -9
l-496 0 -331 256 c-182 140 -329 259 -326 264 6 10 -65 31 855 -260z m-2321
-47 c100 -117 176 -213 169 -214 -7 0 -105 -6 -218 -13 -113 -7 -206 -13 -207
-12 -1 1 5 96 13 211 7 116 14 228 14 250 l0 40 24 -25 c13 -14 105 -121 205
-237z m1798 -67 c94 -72 172 -134 172 -139 1 -4 -122 -6 -271 -5 l-273 3 3
125 c1 69 5 162 8 207 l6 83 91 -71 c51 -39 169 -130 264 -203z"/>
<path d="M23126 9369 c-63 -50 -60 49 -46 -1378 12 -1242 12 -1296 -5 -1306
-72 -41 -111 -113 -93 -169 6 -17 26 -47 45 -67 l34 -35 65 -555 66 -554 -35
-699 c-23 -456 -32 -708 -26 -724 5 -13 25 -41 43 -61 19 -20 177 -205 350
-411 407 -483 386 -460 420 -460 41 0 818 -149 840 -161 25 -14 -3 -15 1551
36 1073 35 1380 47 1415 59 57 18 591 318 601 337 8 16 21 60 174 568 63 211
120 390 125 396 7 8 10 282 10 786 0 749 2 831 60 2517 33 958 60 1756 60
1773 0 20 -10 39 -30 59 -25 25 -39 30 -78 30 -26 0 -470 -16 -987 -36 -840
-32 -943 -38 -965 -53 -58 -40 -55 119 -41 -2289 7 -1218 11 -2215 9 -2217 -8
-8 -1414 -252 -1419 -246 -3 3 -39 472 -80 1042 l-74 1036 59 434 c32 239 60
452 62 474 2 22 -24 420 -57 885 -59 837 -60 845 -85 883 -14 21 -35 42 -47
47 -18 8 -1689 80 -1843 80 -37 0 -59 -6 -78 -21z m1003 -94 c470 -19 856 -37
859 -40 6 -6 -638 -911 -646 -907 -11 6 -1112 975 -1112 979 0 5 -10 5 899
-32z m4501 -8 c0 -2 -102 -103 -228 -224 l-227 -220 -640 188 c-352 103 -638
189 -635 189 10 3 1567 67 1648 69 45 0 82 0 82 -2z m-5030 -677 c233 -327
434 -609 447 -626 l23 -31 -440 -619 c-242 -340 -444 -620 -448 -622 -8 -2
-13 342 -28 1873 -6 576 -5 648 9 635 8 -8 205 -283 437 -610z m1500 -208 c29
-414 50 -755 48 -757 -7 -7 -733 636 -730 647 6 23 617 876 623 870 3 -4 30
-346 59 -760z m2308 579 c317 -93 603 -177 635 -186 32 -9 57 -20 55 -23 -6
-13 -709 -695 -712 -691 -4 4 -530 978 -560 1037 -9 18 -12 32 -6 32 6 0 270
-76 588 -169z m1121 -33 l-81 -185 -90 26 -90 25 166 164 c92 91 169 162 171
160 3 -3 -32 -88 -76 -190z m159 -39 c-4 -111 -9 -203 -12 -206 -5 -5 -127 27
-138 36 -4 4 24 79 63 166 39 88 75 170 80 183 5 12 10 22 11 22 2 0 0 -90 -4
-201z m-4849 -232 c245 -215 446 -397 448 -402 3 -11 -152 -238 -165 -242 -4
-1 -30 30 -58 70 -28 39 -198 278 -377 530 -180 251 -319 453 -309 447 9 -5
217 -187 461 -403z m3216 -161 l269 -499 -279 -273 c-265 -258 -280 -271 -286
-246 -4 15 -7 376 -8 802 -1 752 0 774 17 745 10 -16 139 -255 287 -529z
m1263 198 c73 -22 91 -31 87 -43 -17 -56 -592 -1351 -599 -1352 -5 0 -92 153
-193 340 l-184 341 213 207 c117 114 290 283 383 375 105 104 176 166 185 163
8 -2 57 -16 108 -31z m271 -79 c46 -14 85 -26 87 -27 5 -6 -91 -2717 -97
-2722 -3 -3 -160 281 -349 632 -190 350 -351 649 -359 663 -14 25 -2 55 304
752 175 400 321 727 324 727 3 0 44 -12 90 -25z m-3849 -750 c203 -179 372
-330 375 -335 7 -12 -464 -243 -480 -236 -11 4 -451 614 -457 633 -4 12 173
263 184 263 4 0 174 -146 378 -325z m2839 -337 c99 -185 181 -341 181 -346 0
-4 -45 -112 -101 -238 -55 -126 -104 -237 -108 -247 -5 -14 -79 46 -386 314
-209 182 -381 334 -381 338 -1 3 129 133 289 288 l292 282 16 -27 c9 -15 98
-179 198 -364z m-3245 32 c114 -160 209 -296 212 -304 6 -16 -1274 -642 -1287
-629 -9 9 847 1223 861 1223 4 0 100 -131 214 -290z m771 -461 c-25 -184 -48
-347 -53 -363 -7 -28 -15 -19 -181 213 -96 134 -174 249 -175 257 -1 11 443
239 451 231 1 -2 -18 -154 -42 -338z m2052 -192 l352 -307 -63 -142 c-34 -79
-200 -456 -367 -838 l-304 -694 -6 539 c-3 297 -7 821 -8 1164 l-1 624 23 -20
c12 -11 180 -158 374 -326z m-2354 -4 c103 -146 186 -268 183 -270 -5 -5
-1555 -45 -1568 -40 -11 3 1164 575 1182 576 8 0 99 -119 203 -266z m3322
-388 c169 -313 316 -585 326 -603 12 -20 14 -30 6 -25 -31 18 -847 737 -845
743 26 62 202 459 203 457 2 -1 141 -258 310 -572z m-3240 -10 c-28 -19 -250
-173 -495 -344 -437 -303 -445 -309 -472 -295 -15 8 -52 14 -83 14 l-57 0
-279 270 c-154 148 -279 272 -280 275 0 3 14 22 31 43 l30 37 657 16 c362 9
734 17 828 18 l169 1 -49 -35z m231 -1019 c36 -510 63 -933 61 -939 -2 -6
-268 245 -593 558 l-589 568 3 56 c2 31 7 59 11 63 4 5 236 167 516 362 l510
354 8 -46 c4 -26 36 -465 73 -976z m2984 598 c239 -209 437 -384 440 -389 2
-6 -187 -142 -420 -303 l-425 -293 -7 28 c-4 15 -16 291 -28 613 -11 322 -23
623 -26 670 -6 82 -6 85 12 69 11 -9 215 -187 454 -395z m-526 -264 c14 -355
26 -676 27 -715 l3 -70 -265 -182 c-145 -101 -270 -183 -277 -183 -18 0 -256
71 -264 78 -4 4 81 207 188 452 107 245 276 631 376 858 99 227 182 411 184
410 1 -2 14 -294 28 -648z m-3863 -10 c-1 -8 -6 -41 -10 -73 l-6 -59 -215
-149 c-118 -82 -216 -146 -217 -141 -4 12 -113 944 -113 964 0 14 90 -67 283
-254 171 -165 281 -279 278 -288z m64 -207 c0 -5 -124 -328 -275 -716 -245
-630 -275 -702 -278 -663 -2 25 8 271 23 547 18 360 29 507 38 516 28 28 473
332 482 329 6 -1 10 -7 10 -13z m773 -578 c327 -316 565 -553 558 -556 -18
-10 -816 -222 -819 -218 -2 2 -79 301 -172 664 -92 363 -170 667 -173 675 -5
13 -4 13 15 0 12 -8 278 -262 591 -565z m3798 -59 c-107 -334 -196 -610 -199
-612 -2 -2 -100 24 -218 59 l-214 63 -6 94 c-4 52 -9 169 -13 260 l-6 165 423
291 c232 161 423 291 424 290 2 -2 -85 -276 -191 -610z m-4312 -63 c91 -358
166 -658 166 -666 0 -10 -138 -51 -482 -144 -266 -71 -484 -129 -485 -128 -2
1 138 362 310 803 171 440 315 798 318 794 3 -4 81 -300 173 -659z m4533 -660
c-10 -11 -42 -5 -172 33 -88 26 -161 48 -163 49 -2 2 75 246 170 544 l173 541
3 -577 c2 -462 0 -580 -11 -590z m-953 545 c11 -254 11 -283 1 -282 -17 3
-429 125 -433 129 -5 4 15 18 233 169 99 69 183 125 186 126 4 0 10 -64 13
-142z m-1238 -397 l-237 -261 -46 0 c-26 0 -61 -5 -79 -12 -30 -11 -44 -4
-342 153 -178 94 -304 166 -294 168 47 11 1228 218 1231 215 2 -2 -103 -120
-233 -263z m399 183 c26 -41 43 -79 39 -83 -23 -21 -596 -412 -599 -409 -3 3
505 568 510 568 2 0 24 -34 50 -76z m195 27 c0 -3 -16 -16 -36 -29 -41 -27
-48 -23 -82 36 l-22 40 70 -21 c39 -11 70 -23 70 -26z m386 -107 c142 -41 262
-79 266 -83 6 -5 48 -906 48 -1031 0 -29 -2 -32 -14 -20 -26 28 -717 1113
-712 1118 16 15 133 91 142 91 6 1 127 -33 270 -75z m-118 -641 c202 -314 362
-574 360 -584 -2 -14 -131 51 -678 341 -371 197 -676 364 -677 371 -2 13 600
437 622 438 6 0 173 -254 373 -566z m-1643 365 l345 -183 0 -41 c0 -33 -4 -43
-22 -51 -13 -6 -229 -97 -481 -203 l-458 -192 -236 51 c-130 28 -238 53 -240
54 -5 6 728 747 739 747 5 0 164 -82 353 -182z m2443 76 c45 -14 82 -27 82
-30 0 -5 -198 -626 -266 -835 l-25 -76 -37 12 c-37 13 -37 13 -40 77 -11 239
-37 940 -34 943 3 2 81 -20 320 -91z m-3246 -221 c-326 -335 -360 -368 -366
-362 -6 6 -118 451 -114 454 5 5 741 203 757 204 7 1 -117 -133 -277 -296z
m3567 127 c74 -22 136 -41 138 -43 2 -3 -118 -164 -268 -358 -252 -329 -300
-390 -287 -364 3 6 33 96 66 200 171 538 194 605 205 605 7 0 72 -18 146 -40z
m-4129 -63 c0 -2 25 -102 56 -221 30 -120 53 -220 51 -223 -5 -5 -978 204
-985 212 -2 2 6 7 19 10 13 3 204 55 424 114 371 101 435 117 435 108z m4188
-422 c-49 -165 -93 -305 -96 -312 -9 -14 -185 124 -179 141 6 15 360 477 363
473 2 -1 -38 -137 -88 -302z m-1362 -272 c308 -164 575 -309 591 -323 25 -21
31 -34 35 -78 4 -45 3 -52 -10 -47 -23 9 -1462 886 -1462 892 0 5 77 -35 846
-444z m-268 -12 c376 -228 680 -417 675 -418 -10 -4 -1843 394 -1850 401 -3 2
84 103 194 224 l198 220 50 -5 c44 -5 127 -53 733 -422z m-2965 283 c273 -59
497 -110 497 -113 -1 -4 -103 -111 -228 -239 l-227 -232 -275 325 c-151 179
-284 338 -294 352 l-20 26 25 -6 c13 -3 248 -54 522 -113z m2031 104 c-5 -7
-84 -97 -176 -199 l-169 -186 -107 23 c-59 13 -145 32 -192 42 l-85 20 50 21
c55 24 678 288 683 290 2 1 0 -5 -4 -11z m-1221 -280 c108 -23 197 -45 197
-48 0 -7 -834 -358 -840 -353 -4 4 431 443 440 443 3 0 94 -19 203 -42z m3605
-192 c28 -22 52 -46 52 -52 0 -6 -9 -19 -21 -30 -23 -21 -452 -264 -457 -259
-9 9 30 106 52 130 15 16 29 45 32 65 4 25 33 72 96 153 l90 117 51 -41 c29
-23 76 -60 105 -83z m-3033 68 c121 -26 223 -50 227 -53 6 -6 -122 -152 -349
-398 l-95 -103 -65 0 c-58 0 -877 149 -927 168 -13 6 118 66 480 219 275 116
501 212 504 212 3 1 104 -20 225 -45z m1264 -275 c798 -173 889 -195 845 -201
-58 -9 -2102 -71 -2158 -66 l-39 3 209 232 c159 177 214 232 229 230 11 -2
422 -91 914 -198z"/>
<path d="M6659 9331 c-15 -15 -32 -45 -38 -67 -11 -39 -72 -1214 -73 -1394 0
-52 14 -350 32 -662 l32 -568 -26 -31 c-50 -59 -47 -131 6 -186 29 -30 33 -41
36 -101 2 -37 20 -828 42 -1758 41 -1824 38 -1757 92 -1768 13 -2 430 -18 928
-35 864 -30 959 -32 2101 -31 l1196 0 46 36 c28 22 48 46 51 62 3 15 40 401
82 859 l76 832 -23 30 c-13 16 -36 34 -50 39 -17 7 -430 -10 -1277 -50 -1001
-48 -1255 -58 -1267 -48 -21 17 -20 41 19 668 20 310 31 555 26 570 -4 15 -20
54 -35 86 l-27 59 66 841 c36 463 66 851 66 864 0 19 -5 22 -40 22 -32 0 -40
-4 -40 -17 1 -35 -123 -1618 -127 -1623 -5 -6 -383 373 -383 384 0 13 481
1239 491 1252 6 7 0 15 -16 22 -35 16 -65 70 -65 117 0 84 62 145 146 145 l42
0 -4 38 c-25 219 -57 753 -63 1028 l-6 332 -29 28 -28 29 -507 6 c-278 4 -713
9 -965 12 l-459 5 -28 -27z m898 -65 c9 -9 -142 -447 -152 -444 -19 5 -614
443 -614 452 -1 9 757 1 766 -8z m840 -5 l172 -6 -292 -427 c-161 -236 -297
-426 -303 -424 -31 12 -495 360 -491 370 2 6 39 120 82 254 l79 242 290 -1
c160 -1 368 -4 463 -8z m-1355 -272 c189 -138 344 -252 345 -253 1 -1 -60
-189 -135 -419 l-137 -417 -248 0 -248 0 6 73 c3 39 17 304 30 587 26 541 34
680 41 680 2 0 158 -113 346 -251z m1547 -41 c13 -151 27 -900 19 -977 l-3
-33 -275 201 c-151 111 -276 206 -278 211 -4 10 507 760 517 760 4 0 13 -73
20 -162z m-878 -449 c121 -89 219 -167 217 -174 -2 -7 -66 -105 -143 -218
l-140 -206 -57 -1 c-52 0 -58 2 -62 23 -4 20 -46 681 -46 720 0 9 2 17 5 17 3
0 105 -73 226 -161z m-282 -319 c10 -146 16 -268 14 -272 -2 -5 -58 -8 -125
-8 -104 0 -119 2 -114 15 3 9 50 150 103 313 83 250 99 291 101 257 2 -22 11
-159 21 -305z m839 -90 l253 -185 -196 -3 c-107 -1 -283 -1 -390 0 l-196 3
128 188 c70 103 132 186 138 185 6 -2 124 -86 263 -188z m-1191 -287 c-23 -84
-92 -293 -97 -293 -3 0 -75 70 -160 155 l-155 155 209 0 c194 0 208 -1 203
-17z m377 -14 c3 -17 6 -58 6 -91 l0 -59 -117 -171 c-65 -95 -121 -177 -125
-182 -5 -7 -40 21 -89 70 l-81 81 63 192 63 191 137 0 137 0 6 -31z m117 14
c-27 -47 -31 -49 -31 -15 0 26 4 32 20 32 17 0 19 -3 11 -17z m979 -2 c-5 -11
-10 -39 -10 -63 l-1 -43 -477 -287 c-262 -157 -478 -286 -479 -284 -1 1 -9
112 -18 248 l-17 245 68 102 67 101 439 0 c431 0 439 0 428 -19z m-1625 -470
c-15 -45 -28 -81 -30 -79 -3 3 -153 344 -162 368 -3 8 45 -35 107 -96 l112
-112 -27 -81z m-169 29 c53 -124 97 -232 96 -242 0 -9 -32 -113 -71 -230 -39
-118 -71 -217 -71 -220 0 -3 16 -9 35 -12 21 -4 50 -21 71 -42 l35 -35 90 55
c50 31 94 56 98 56 4 0 14 -12 20 -27 18 -38 385 -878 428 -978 l34 -80 -388
388 c-374 373 -389 387 -426 387 -108 0 -171 112 -119 209 15 29 57 61 94 73
5 2 -3 202 -17 445 -28 488 -29 515 -16 493 5 -8 53 -116 107 -240z m1785 218
c-91 -238 -454 -1155 -459 -1160 -4 -4 -117 102 -250 236 l-243 243 3 66 3 66
470 285 c259 157 473 285 477 286 4 0 4 -10 -1 -22z m-1052 -313 c12 -189 12
-190 -10 -207 -12 -10 -24 -18 -28 -18 -3 0 -46 39 -93 88 l-87 87 97 142 c82
120 98 138 103 120 4 -12 12 -107 18 -212z m-395 6 l69 -69 -68 -99 c-37 -54
-72 -102 -76 -107 -5 -5 -22 21 -39 60 l-32 69 33 108 c18 59 35 107 38 107 4
0 37 -31 75 -69z m268 -282 c-14 -13 -275 -170 -277 -167 -1 2 -10 18 -19 36
l-17 33 87 125 86 126 74 -73 c41 -40 70 -76 66 -80z m-432 -29 c11 -21 20
-45 20 -52 0 -13 -142 -230 -147 -225 -3 3 100 317 104 317 1 0 12 -18 23 -40z
m549 -75 c32 -34 41 -52 41 -79 0 -20 16 -279 35 -577 20 -298 35 -545 33
-550 -2 -5 -109 232 -238 528 -129 295 -230 538 -225 540 6 2 75 44 155 93 80
48 148 89 151 89 4 1 25 -19 48 -44z m-469 -107 c0 -4 -14 -15 -32 -24 l-32
-17 15 24 c9 13 19 30 23 38 7 11 10 11 17 0 5 -8 9 -17 9 -21z m1030 -465 c0
-7 -70 -191 -156 -410 -86 -219 -159 -406 -161 -415 -3 -11 2 -20 13 -24 24
-9 84 -65 84 -78 1 -42 21 -35 396 142 208 99 380 179 381 178 3 -3 -66 -1099
-70 -1102 -2 -3 -518 537 -644 674 -41 45 -52 53 -53 37 0 -11 -9 -38 -21 -59
l-21 -39 367 -367 c202 -202 363 -370 359 -373 -7 -4 -349 -21 -444 -22 -10 0
-58 115 -155 375 -107 282 -145 374 -156 370 -8 -3 -40 -5 -71 -5 -53 0 -61 3
-95 38 -35 35 -38 41 -38 97 0 54 3 62 35 95 22 23 47 38 70 41 l36 6 -8 46
c-8 47 -78 1121 -78 1197 l0 40 215 -215 c118 -118 215 -220 215 -227z m-488
-902 c-9 -13 -19 -47 -22 -75 l-5 -50 -390 -87 c-214 -48 -392 -85 -395 -83
-3 4 -28 897 -29 1104 l-1 75 429 -429 429 -429 -16 -26z m968 408 c0 -24 -23
-37 -357 -198 -196 -94 -358 -170 -360 -167 -2 2 62 172 143 377 80 206 150
385 156 398 9 24 18 16 213 -179 162 -162 205 -210 205 -231z m-918 -629 c-5
-21 -802 -2051 -813 -2070 -5 -10 -9 14 -9 65 0 44 -9 447 -20 895 -11 448
-20 844 -20 880 l0 66 408 91 c224 51 418 91 432 90 16 -1 24 -7 22 -17z m118
-428 l56 -317 -71 -6 c-38 -4 -125 -9 -191 -12 l-122 -6 52 132 c29 73 87 223
131 334 43 111 81 200 84 197 4 -3 31 -148 61 -322z m153 -58 l94 -249 -51 -6
c-28 -3 -52 -5 -54 -4 -1 1 -20 105 -42 231 -21 126 -42 242 -45 258 -3 16 -3
27 0 25 2 -3 47 -118 98 -255z m3127 -203 c-69 -39 -973 -511 -980 -511 -11 0
-389 425 -392 442 -2 10 134 20 622 44 695 35 772 37 750 25z m85 -821 c-41
-442 -76 -805 -78 -807 -4 -4 -927 1038 -927 1046 1 6 1073 571 1077 567 1 -1
-31 -364 -72 -806z m-1676 747 c-2 -2 -110 -62 -239 -132 l-234 -129 -108 114
c-60 62 -106 115 -103 118 2 3 111 10 242 17 242 12 450 18 442 12z m-659
-188 l109 -115 -272 -150 c-149 -82 -276 -150 -283 -152 -6 -2 -21 25 -34 59
-19 53 -20 66 -10 83 20 32 248 335 293 389 l40 48 24 -23 c14 -13 74 -75 133
-139z m-286 139 c-32 -54 -249 -327 -255 -321 -11 12 -120 306 -115 311 3 2
67 7 143 12 225 12 235 12 227 -2z m-436 -85 c16 -43 50 -135 76 -204 l48
-127 -83 -111 c-46 -60 -84 -109 -86 -107 -4 4 -103 578 -103 598 0 12 10 18
38 21 85 9 78 13 110 -70z m1429 -302 c-14 -205 -26 -326 -33 -328 -9 -3 -414
415 -422 436 -1 4 105 66 235 138 235 129 238 131 240 105 2 -15 -7 -173 -20
-351z m-1663 342 c3 -16 26 -147 51 -293 25 -146 48 -277 51 -292 4 -21 2 -28
-10 -28 -8 0 -123 138 -255 308 -225 288 -237 307 -213 310 15 1 95 6 177 11
83 4 160 9 172 10 16 1 23 -6 27 -26z m1931 -144 c83 -94 165 -187 182 -208
l33 -39 -186 -152 c-175 -143 -188 -151 -212 -141 -24 12 -25 14 -19 89 3 42
14 200 23 350 10 149 21 272 24 271 3 0 73 -77 155 -170z m-2133 -246 c190
-244 218 -285 209 -302 -6 -11 -11 -39 -11 -63 l0 -43 -471 -258 c-259 -143
-472 -257 -473 -255 -2 1 108 284 243 627 l245 623 19 -23 c11 -13 118 -151
239 -306z m1675 -250 c77 -84 83 -94 73 -114 -7 -12 -10 -45 -8 -75 l5 -54
-336 -273 c-185 -150 -341 -276 -347 -280 -13 -8 -331 829 -320 840 4 4 136
78 294 165 l287 159 133 -138 c74 -76 172 -179 219 -230z m1174 -313 c217
-245 400 -453 408 -463 7 -9 -196 86 -450 212 -787 387 -769 378 -770 406 -1
14 -2 29 -3 34 -1 5 82 77 184 160 l185 150 26 -27 c15 -15 204 -227 420 -472z
m-2227 414 c6 -19 -4 -28 -76 -67 -46 -25 -85 -44 -86 -42 -2 2 27 44 64 93
75 98 73 98 98 16z m200 -529 c87 -234 157 -428 154 -430 -2 -3 -118 142 -257
320 l-253 326 16 33 c9 19 16 47 16 63 0 27 8 34 73 70 39 23 77 41 82 42 6 0
81 -191 169 -424z m-477 175 l48 0 242 -312 c133 -172 241 -313 240 -314 -1
-1 -344 11 -762 27 -418 15 -795 28 -838 29 -58 0 -78 3 -75 12 3 7 238 141
524 299 499 275 520 285 546 272 15 -7 49 -13 75 -13z m2643 -494 l275 -136
-1085 0 c-665 0 -1080 4 -1075 9 6 5 164 135 352 288 l341 278 79 0 c64 0 84
4 107 21 l29 21 351 -172 c193 -95 475 -234 626 -309z"/>
<path d="M12074 9329 c-63 -18 -61 10 -99 -1014 -19 -511 -37 -984 -39 -1050
-4 -83 60 -1670 74 -1841 0 -1 14 -4 31 -8 30 -6 83 -52 104 -90 10 -18 24
-15 260 53 137 39 252 67 256 63 3 -4 18 -81 33 -171 22 -133 24 -167 14 -176
-11 -9 -173 -145 -229 -192 -13 -11 -36 12 -169 173 l-153 185 -22 -38 c-17
-30 -19 -41 -10 -53 6 -8 69 -83 138 -167 70 -83 128 -156 129 -162 2 -5 -69
-71 -157 -145 l-160 -136 -7 43 c-3 23 -7 155 -7 292 l-1 251 -40 -4 -40 -4 0
-72 c0 -39 7 -528 16 -1086 18 -1126 13 -1056 84 -1092 32 -17 87 -18 696 -18
363 0 770 -3 903 -7 234 -6 243 -7 251 -27 4 -12 22 -34 39 -50 41 -39 127
-48 180 -18 101 55 89 207 -19 252 l-28 11 -6 322 c-22 1070 -46 3251 -37
3284 7 25 7 39 1 43 -7 4 -2 431 15 1267 14 693 22 1274 19 1291 -7 37 -47 75
-93 91 -42 14 -1879 14 -1927 0z m1336 -80 c0 -5 -50 -131 -111 -279 -109
-262 -112 -269 -133 -256 -11 8 -226 130 -476 271 -250 142 -459 261 -464 266
-6 5 243 9 587 9 415 0 597 -3 597 -11z m515 1 c-8 -12 -606 -472 -610 -468
-2 2 148 373 185 456 9 22 11 22 220 22 134 0 209 -4 205 -10z m85 -531 c-6
-265 -12 -484 -13 -485 -4 -5 -702 406 -704 414 -2 8 719 563 725 557 2 -1 -2
-220 -8 -486z m-1285 151 c237 -134 432 -245 434 -247 5 -4 -46 -483 -59 -550
l-7 -43 43 0 c51 0 43 -31 80 300 14 129 27 236 29 238 2 2 159 -88 350 -200
261 -153 342 -204 328 -210 -10 -4 -162 -37 -338 -73 -175 -36 -329 -68 -341
-71 l-22 -6 22 -33 c11 -19 28 -34 36 -35 8 0 166 31 350 70 184 38 343 70
354 70 18 0 18 -7 12 -127 -3 -71 -9 -324 -12 -563 -4 -239 -9 -476 -13 -526
l-6 -92 -370 503 c-367 498 -370 502 -393 487 -30 -20 -99 -20 -137 -2 -94 47
-101 196 -12 251 24 15 27 19 11 17 -17 -3 -95 98 -431 554 -226 306 -414 562
-419 569 -4 7 12 2 37 -13 24 -14 238 -135 474 -268z m-167 -327 c374 -509
421 -576 416 -601 -5 -23 -65 -78 -281 -257 -151 -125 -278 -223 -282 -219 -8
8 -282 1612 -281 1643 0 8 2 12 3 10 2 -2 193 -262 425 -576z m-231 -1140 c-1
-16 -50 -63 -157 -152 -85 -70 -156 -127 -158 -126 -4 4 60 1709 65 1725 6 17
254 -1414 250 -1447z m673 393 c7 -9 8 -21 3 -29 -4 -7 -118 -158 -251 -336
-134 -177 -242 -324 -240 -325 1 -2 22 -6 45 -10 l43 -6 232 309 c128 171 233
309 234 308 1 -1 -11 -171 -27 -377 -15 -206 -28 -382 -29 -391 0 -14 -23 -11
-167 23 -91 21 -168 38 -170 38 -1 0 -3 -19 -3 -43 l0 -42 155 -34 c85 -19
160 -38 166 -41 8 -6 8 -54 -2 -189 l-12 -182 -23 23 c-12 13 -87 97 -166 188
-78 91 -146 167 -151 168 -4 1 -22 -6 -41 -15 l-34 -18 204 -235 c170 -196
203 -239 200 -260 -3 -14 -15 -175 -28 -358 -12 -183 -25 -338 -29 -343 -9
-15 -172 -61 -178 -50 -3 5 -53 289 -111 630 -84 499 -108 621 -120 621 -23 0
-70 34 -91 66 -39 60 -14 161 49 195 20 10 27 19 19 22 -11 4 -47 187 -47 239
0 15 533 468 551 468 4 0 12 -7 19 -14z m530 -573 c202 -274 366 -499 365
-500 -1 -2 -796 178 -802 181 -1 1 11 179 28 396 16 217 29 404 29 414 0 11 3
16 6 13 4 -3 172 -230 374 -504z m-1160 -45 c10 -57 16 -105 15 -106 -4 -5
-191 36 -218 46 -16 6 -2 22 79 89 55 45 101 80 103 77 2 -2 12 -50 21 -106z
m-150 -159 c74 -17 138 -33 142 -35 5 -3 8 -19 8 -35 0 -17 6 -42 13 -57 13
-25 1 -80 -143 -652 l-157 -625 -6 100 c-4 55 -19 369 -33 697 -26 578 -27
598 -9 618 23 26 27 26 185 -11z m1310 -300 c223 -50 409 -95 413 -99 4 -4
-79 -173 -186 -376 -107 -203 -200 -381 -208 -396 l-14 -27 -235 270 c-129
149 -238 276 -241 282 -3 7 1 110 10 230 15 211 16 218 36 213 11 -3 202 -46
425 -97z m-985 -575 c52 -308 96 -570 97 -584 3 -24 -3 -27 -262 -101 -146
-42 -266 -76 -267 -75 -1 1 73 300 164 664 91 364 167 661 170 659 2 -3 46
-256 98 -563z m1435 -265 c5 -315 8 -574 7 -575 -7 -7 -382 440 -382 454 0 19
356 704 362 698 2 -2 8 -262 13 -577z m-721 134 c111 -129 199 -239 195 -243
-12 -11 -444 -133 -450 -127 -3 3 4 129 15 281 12 151 21 287 21 301 0 14 3
25 8 24 4 0 99 -106 211 -236z m521 -601 c188 -218 192 -224 174 -242 -10 -9
-221 -166 -467 -349 l-449 -331 -38 33 -39 32 38 70 c21 38 139 261 261 495
313 597 289 556 310 534 9 -11 104 -119 210 -242z m-450 209 c-19 -16 -105
-87 -190 -159 -85 -72 -156 -129 -158 -127 -3 2 -1 51 3 108 l7 105 171 50
c95 27 179 50 187 51 8 1 -1 -12 -20 -28z m8 -173 c-238 -456 -403 -766 -406
-763 -4 4 26 443 34 492 4 27 38 60 217 212 117 99 213 180 215 181 2 0 -25
-55 -60 -122z m-432 55 c-2 -10 -8 -71 -11 -136 l-7 -117 -46 -41 -46 -40 -23
128 c-12 70 -23 139 -25 153 -3 22 3 26 67 46 88 28 98 29 91 7z m-39 -526
c-5 -81 -11 -146 -13 -144 -1 1 -12 56 -23 122 l-21 119 33 27 c17 15 33 26
33 26 1 -1 -3 -68 -9 -150z m931 -433 c-99 -291 -183 -531 -185 -534 -3 -4
-603 291 -603 297 0 1 10 22 23 48 21 41 72 81 482 385 253 187 460 338 462
336 2 -1 -79 -241 -179 -532z m-1018 214 c28 -173 32 -209 21 -222 -8 -9 -17
-16 -21 -16 -6 0 -213 243 -247 291 -11 15 0 28 95 108 98 82 107 88 113 68 3
-12 21 -115 39 -229z m1228 -793 c6 -456 9 -831 8 -832 -1 -1 -77 181 -169
405 l-167 408 153 442 c100 291 154 437 159 425 3 -10 11 -391 16 -848z
m-1424 652 c54 -65 96 -121 93 -123 -2 -2 -127 -3 -277 -2 l-273 3 163 138
c156 131 164 137 180 120 9 -10 61 -71 114 -136z m170 -238 c5 -27 -6 -55 -70
-175 -41 -79 -78 -144 -82 -144 -5 0 -429 317 -456 342 -6 4 127 8 296 8 l306
0 6 -31z m-399 -240 c113 -85 205 -158 205 -163 0 -5 -105 -208 -232 -452
l-233 -442 -6 236 c-4 131 -10 416 -13 636 l-7 398 41 -30 c23 -16 133 -99
245 -183z m516 132 c30 -30 409 -495 409 -501 0 -7 -132 -98 -149 -102 -18 -5
-451 326 -448 342 1 8 33 75 71 148 61 116 72 131 90 126 12 -3 24 -9 27 -13z
m590 -392 c-51 -32 -96 -59 -100 -59 -6 0 -193 220 -295 348 -13 16 56 -14
234 -103 l252 -126 -91 -60z m-459 -230 l48 -37 -418 -273 c-229 -149 -428
-279 -442 -288 -27 -18 -28 -19 280 565 l164 312 160 -121 c89 -67 182 -138
208 -158z m763 -129 c79 -195 143 -355 141 -357 -4 -5 -486 575 -486 585 0 7
193 133 197 128 2 -1 68 -162 148 -356z m-215 -67 c113 -136 214 -258 225
-272 15 -20 -524 379 -569 420 -7 6 116 97 134 99 3 0 98 -111 210 -247z m370
-503 c0 -7 -1688 -2 -1714 4 -5 1 199 138 454 303 l462 302 399 -301 c219
-166 399 -305 399 -308z"/>
<path d="M3395 9289 c-1062 -21 -2001 -38 -2088 -38 l-158 -1 16 -30 c23 -45
19 -111 -10 -153 l-24 -36 874 -668 c808 -617 872 -668 842 -672 -18 -2 -261
2 -542 9 -442 10 -512 14 -522 27 -7 9 -162 303 -345 654 l-332 638 -30 -6
c-17 -3 -34 -8 -38 -12 -4 -3 141 -289 322 -636 181 -346 330 -634 330 -639 0
-5 -129 -6 -317 -2 -286 6 -321 8 -343 25 -24 17 -25 23 -31 162 -4 79 -7 360
-8 624 l-1 480 -29 17 c-64 36 -80 140 -31 208 21 30 21 31 2 19 -26 -17 -52
-71 -52 -112 0 -18 9 -49 20 -70 20 -38 20 -50 20 -1880 0 -1013 2 -2395 5
-3072 4 -676 6 -1238 6 -1247 -1 -12 10 -18 41 -22 24 -4 1017 -31 2206 -62
1670 -43 2170 -53 2192 -44 15 6 35 26 44 43 16 32 246 1654 246 1737 0 22 -8
47 -19 61 l-19 23 -313 -2 c-173 -2 -622 -7 -999 -12 -377 -5 -804 -10 -950
-10 l-266 0 -22 303 c-13 166 -22 308 -22 315 0 8 -16 12 -46 12 -110 0 -176
105 -128 206 9 19 29 42 44 50 l27 17 -47 86 c-26 47 -81 152 -124 234 l-76
147 27 11 c16 6 233 87 483 181 250 94 459 173 464 176 24 14 -23 -55 -289
-428 -157 -220 -288 -406 -290 -412 -3 -7 5 -26 18 -41 l23 -29 329 463 c182
254 333 466 336 471 5 8 689 -489 689 -501 0 -3 -304 -110 -675 -236 l-675
-230 0 -33 c0 -18 -7 -46 -15 -62 l-16 -30 1095 0 c863 0 1096 3 1104 13 10
12 116 1652 110 1700 -2 14 -7 30 -12 34 -4 4 -537 10 -1184 13 l-1177 5 -3
288 -2 287 132 0 c73 -1 630 -14 1238 -29 854 -23 1111 -26 1130 -17 49 22 48
36 -48 871 -50 429 -92 801 -95 827 -5 55 -21 79 -51 77 -11 -1 -889 -19
-1951 -40z m1813 -48 c-1 -5 -205 -150 -452 -321 -411 -285 -451 -310 -475
-302 -21 8 -1178 518 -1273 563 -16 7 -28 15 -28 19 0 3 478 15 1063 27 584
11 1086 21 1115 21 30 1 52 -2 50 -7z m204 -796 c48 -417 86 -761 83 -763 -6
-6 23 -29 -590 457 -286 227 -520 416 -520 421 0 12 917 650 930 646 5 -1 49
-344 97 -761z m-2094 514 c560 -247 647 -288 623 -289 -22 0 -2694 480 -2721
490 -22 7 -19 9 20 10 92 4 1211 27 1368 28 l164 2 546 -241z m-598 -150 c806
-144 1468 -265 1473 -268 4 -4 -263 -195 -594 -424 l-601 -417 -781 597 c-430
329 -832 636 -894 683 -112 85 -133 107 -90 97 12 -3 681 -124 1487 -268z
m2145 -735 c303 -240 552 -441 554 -446 2 -7 -54 -8 -165 -4 -93 4 -538 15
-989 26 -1079 26 -1151 29 -1134 46 24 23 1163 813 1174 813 6 0 258 -195 560
-435z m-3565 -639 c151 -120 281 -223 288 -230 10 -9 -2 -57 -64 -251 -42
-131 -77 -240 -78 -241 0 0 -101 -14 -223 -30 l-223 -29 0 509 c0 406 3 507
13 500 6 -6 136 -108 287 -228z m438 200 c5 -4 -109 -355 -115 -355 -5 0 -429
334 -453 357 -13 13 20 14 275 8 160 -4 291 -8 293 -10z m692 -16 c256 -6 467
-12 469 -14 2 -3 -383 -450 -564 -655 l-22 -25 22 -32 22 -32 299 342 299 342
6 -145 c4 -80 7 -202 8 -271 l1 -125 -277 -220 c-152 -120 -282 -223 -290
-227 -9 -6 -23 13 -50 67 l-37 75 -30 -16 c-17 -9 -32 -17 -34 -18 -2 -2 15
-40 38 -85 23 -45 38 -86 33 -90 -26 -22 -833 -660 -860 -679 -18 -12 -33 -20
-33 -18 0 2 170 199 379 438 l379 434 -35 18 c-94 49 -97 201 -5 247 17 8 32
18 32 22 0 4 -79 158 -175 342 -96 184 -175 336 -175 339 0 2 30 3 68 1 37 -2
276 -9 532 -15z m-476 -394 c140 -267 174 -349 133 -318 -238 185 -397 318
-393 328 2 7 23 71 46 142 49 155 50 157 54 152 2 -2 74 -139 160 -304z m-89
-240 c135 -108 195 -162 195 -175 0 -11 -6 -20 -12 -20 -7 -1 -125 -16 -263
-34 -137 -18 -251 -33 -252 -32 -3 2 130 416 134 416 1 0 91 -70 198 -155z
m3215 -43 c0 -14 -1269 -484 -1283 -476 -23 14 -632 457 -647 470 -12 12 138
14 958 14 535 0 972 -4 972 -8z m257 -74 c-4 -40 -16 -226 -28 -413 -11 -187
-22 -341 -22 -342 -3 -2 -1251 329 -1256 334 -2 1 -2 6 2 9 8 9 1280 483 1296
484 11 0 13 -14 8 -72z m-2088 -101 c442 -318 472 -341 453 -348 -162 -63
-1037 -388 -1038 -386 -6 6 -223 424 -226 435 -3 14 548 460 571 461 7 1 115
-72 240 -162z m-1150 -56 c13 -8 13 -12 0 -27 -41 -52 -890 -1024 -899 -1029
-5 -3 -10 -3 -10 1 0 11 311 978 316 983 3 3 471 69 569 80 6 0 16 -3 24 -8z
m-683 -97 c-10 -25 -336 -1042 -336 -1047 0 -3 12 -8 28 -12 15 -3 41 -17 59
-31 l31 -24 583 463 c320 254 584 461 587 460 11 -3 222 -418 215 -421 -5 -2
-316 -119 -693 -260 l-684 -257 3 -52 c2 -53 -7 -82 -40 -118 -18 -21 -15 -22
714 -329 403 -169 736 -311 740 -316 4 -4 -64 -146 -152 -316 l-161 -309 40
-6 c22 -3 53 -15 68 -26 l27 -20 302 254 c166 139 308 253 315 253 19 -1 982
-738 986 -755 3 -11 -6 -15 -30 -15 -18 1 -370 40 -783 89 -412 49 -750 88
-751 87 -1 0 -4 -16 -7 -33 -6 -28 -3 -33 16 -37 12 -3 380 -46 817 -96 437
-50 802 -95 810 -99 8 -4 16 -17 18 -28 2 -17 -86 -82 -479 -354 -266 -184
-488 -337 -494 -341 -8 -5 -146 150 -380 425 -243 284 -374 431 -384 429 -89
-20 -143 -2 -181 60 -35 57 -25 112 29 172 14 16 20 26 13 22 -36 -21 -81 26
-589 623 -284 333 -523 613 -532 621 -12 12 -28 14 -60 10 l-44 -5 469 -550
c536 -629 498 -584 493 -589 -2 -3 -227 98 -499 222 l-495 227 -3 348 c-2 274
0 347 10 347 7 0 -1 9 -19 20 -39 24 -63 67 -63 115 0 44 26 102 51 116 18 9
19 32 19 529 0 488 1 520 18 520 9 1 94 11 187 24 214 30 219 30 211 10z
m3111 -380 c332 -87 603 -162 603 -165 0 -4 -122 -48 -271 -98 l-270 -92 -227
167 c-125 92 -280 206 -344 253 -105 77 -142 112 -105 99 6 -3 283 -76 614
-164z m753 -221 c1 -40 -32 -579 -36 -591 -3 -10 -18 -4 -52 20 -327 236 -513
371 -516 377 -4 6 560 206 592 210 6 0 12 -7 12 -16z m-2528 -318 c116 -220
120 -231 108 -260 -7 -16 -15 -45 -17 -63 l-5 -33 -112 6 c-61 3 -421 17 -800
31 -380 13 -692 26 -694 29 -6 6 -67 -18 703 272 369 138 676 251 683 250 8
-1 68 -105 134 -232z m1971 -8 c78 -57 216 -157 307 -222 91 -65 167 -119 169
-121 2 -2 -431 -4 -964 -4 -533 0 -966 2 -963 5 7 7 1280 443 1296 444 7 1 77
-46 155 -102z m-2580 -396 c711 -26 738 -28 758 -48 l21 -20 -122 -234 c-67
-129 -125 -237 -129 -242 -6 -6 -1266 518 -1339 558 -27 14 -27 14 23 14 28 0
382 -12 788 -28z m837 -183 c0 -18 9 -141 19 -273 11 -132 18 -241 17 -242 -4
-4 -269 113 -269 120 1 16 217 427 225 427 4 0 8 -15 8 -32z m-146 -523 c71
-30 131 -57 133 -59 2 -2 -121 -108 -273 -235 -152 -128 -278 -230 -281 -227
-3 3 287 574 292 576 0 0 59 -25 129 -55z m2656 -52 c0 -8 -1068 -749 -1092
-758 -7 -2 -24 4 -38 14 l-24 19 239 361 240 360 190 3 c105 2 256 4 338 6 81
1 147 -1 147 -5z m-770 -9 c0 -14 -395 -593 -399 -583 -2 6 -15 137 -30 292
l-26 282 55 6 c73 8 400 11 400 3z m-530 -11 c0 -5 14 -163 32 -352 23 -254
29 -346 20 -349 -6 -2 -28 -15 -48 -28 l-36 -25 -77 58 c-42 32 -263 200 -490
373 l-414 315 189 5 c313 9 824 11 824 3z m-2615 -273 c315 -144 562 -263 578
-278 23 -22 27 -34 25 -66 -3 -39 -9 -45 -556 -503 -497 -417 -556 -463 -587
-463 l-35 0 0 786 c0 625 3 785 13 781 6 -3 260 -119 562 -257z m3894 -572
c-62 -447 -113 -815 -115 -817 -3 -3 -911 685 -942 714 -12 10 -12 17 -1 36 7
13 15 42 18 63 6 39 7 40 575 433 313 216 571 391 574 389 2 -3 -47 -370 -109
-818z m-3211 106 l31 -15 -18 -47 c-10 -26 -81 -220 -157 -430 l-139 -384
-115 6 c-63 3 -240 9 -394 12 l-278 7 23 23 c37 36 1003 844 1010 844 3 0 20
-7 37 -16z m466 -478 c196 -230 356 -420 354 -421 -5 -4 -1011 25 -1015 29 -6
6 291 816 298 813 4 -1 167 -190 363 -421z m2074 -123 l464 -353 -84 0 c-143
0 -1931 49 -1934 53 -2 2 211 152 473 334 l478 331 70 -6 70 -5 463 -354z"/>
<path d="M11906 5389 c-67 -53 -74 -146 -15 -204 19 -18 45 -36 59 -40 21 -6
20 -3 -8 14 -61 39 -89 119 -61 174 6 12 23 34 37 50 31 32 25 35 -12 6z"/>
</g>
</svg>
